<svg height="128" width="128" xmlns="http://www.w3.org/2000/svg">
  <rect x="2" y="2" width="124" height="124" rx="14" fill="#363d52" stroke="#212532" stroke-width="4"/>
  <g transform="scale(.101) translate(122 122)">
    <g fill="#fff">
      <path d="M105 673v33q407 354 814 0v-33z"/>
      <path d="m105 673 152 14q12 1 15 14l4 67 132 10 8-61q2-11 15-15h162q13 4 15 15l8 61 132-10 4-67q3-13 15-14l152-14V427q30-39 14-69-10-19-30-22-5-1-10-1-27 0-44 15-10 9-17 25-11-28-29-42-21-17-44-17-19 0-35 10t-19 30q-15 0-30-20-11-15-27-20-22-6-41 0-23 8-31 33-22-30-53-30-33 0-54 24-10 12-21 28-2-25-24-41-24-18-48-18-29 0-51 22-11 11-21 29-14-27-34-41-23-16-47-16-27 0-48 19-9 8-17 22-15-46-60-57-31-8-60 0-46 18-55 59-19 5-35 20-8 8-14 19-1-18-22-28-23-11-46-4-29 8-39 40-7 22-29 36-1 1-2 2-14-14-31-19-22-6-43 0-25 8-33 25-5 10-10 21-14-31-42-40-31-10-58 0-32 23-43 52-7 2-13 6l-3-2z"/>
      <path d="M483 600v33q407 354 814 0v-33z"/>
      <path d="M483 600 635 614q12 1 15 14l4 67 132 10 8-61q2-11 15-15h162q13 4 15 15l8 61 132-10 4-67q3-13 15-14l152-14V354q30-39 14-69-10-19-30-22-5-1-10-1-27 0-44 15-10 9-17 25-11-28-29-42-21-17-44-17-19 0-35 10t-19 30q-15 0-30-20-11-15-27-20-22-6-41 0-23 8-31 33-22-30-53-30-33 0-54 24-10 12-21 28-2-25-24-41-24-18-48-18-29 0-51 22-11 11-21 29-14-27-34-41-23-16-47-16-27 0-48 19-9 8-17 22-15-46-60-57-31-8-60 0-46 18-55 59-19 5-35 20-8 8-14 19-1-18-22-28-23-11-46-4-29 8-39 40-7 22-29 36-1 1-2 2-14-14-31-19-22-6-43 0-25 8-33 25-5 10-10 21-14-31-42-40-31-10-58 0-32 23-43 52-7 2-13 6z"/>
    </g>
  </g>
  <circle cx="64" cy="64" r="20" fill="#ffd700"/>
</svg>
